<?xml version="1.0" encoding="UTF-8"?>
<svg xmlns="http://www.w3.org/2000/svg" version="1.2" baseProfile="tiny-ps"
     width="1080" height="1080" viewBox="0 0 1080 1080">
  <title>LatchClub</title>
  <rect x="0" y="0" width="1080" height="1080" fill="#03A493"/>
  <path d="M 458.752 449.250 L 458.500 695.500 440.538 695.774 C 425.944 695.997, 421.820 695.748, 418.538 694.447 C 413.885 692.602, 409.546 688.809, 407.161 684.500 C 405.633 681.740, 405.460 665.027, 405 475.500 L 404.500 269.500 378.500 269.500 L 352.500 269.500 352.219 472 C 352.026 611.062, 352.271 677.077, 353.003 682.727 C 355.211 699.781, 361.213 712.810, 372.339 724.703 C 379.248 732.089, 384.200 735.725, 393.839 740.488 C 409.066 748.013, 398.704 747.474, 532 747.683 C 656.174 747.877, 653.474 747.796, 669 751.782 C 679.905 754.582, 696.494 765.178, 707.500 776.374 C 716.083 785.106, 724.825 797.311, 725.243 801.145 C 725.484 803.357, 725.196 803.490, 720.500 803.338 C 700.236 802.679, 467.462 801.854, 463.641 802.427 L 458.796 803.153 459.485 807.827 C 461.280 820.011, 466.220 829.622, 475.606 839.195 C 482.025 845.742, 486.787 848.890, 494.500 851.687 C 499.242 853.406, 506.983 853.500, 644.500 853.500 L 789.500 853.500 789.461 843 C 789.368 818.082, 779.097 787.861, 761.918 761.958 C 753.485 749.242, 734.810 730.686, 721.500 721.797 C 704.263 710.284, 686.546 702.415, 670.500 699.146 C 667.750 698.585, 664.150 697.795, 662.500 697.389 C 660.850 696.983, 626.280 696.392, 585.677 696.075 L 511.855 695.500 511.948 476.500 C 512.009 334.854, 511.686 254.674, 511.035 249.500 C 509.079 233.962, 498.263 217.735, 484.888 210.270 C 477.754 206.289, 467.778 203, 462.837 203 L 459.004 203 458.752 449.250" stroke="none" fill="#F5F7F7" fill-rule="evenodd"/>
</svg>
